<?xml version="1.0" encoding="UTF-8"?>
<svg width="364px" height="120px" viewBox="0 0 364 120" version="1.1" xmlns="http://www.w3.org/2000/svg" xmlns:xlink="http://www.w3.org/1999/xlink">
    <!-- Generator: Sketch 42 (36781) - http://www.bohemiancoding.com/sketch -->
    <title>logo-color</title>
    <desc>Created with Sketch.</desc>
    <defs></defs>
    <g id="Page-1" stroke="none" stroke-width="1" fill="none" fill-rule="evenodd">
        <g id="logo-color" fill="#1A96FC">
            <g id="Group">
                <path d="M0.6,60 C0.6,26.862915 27.462915,0 60.6,0 C93.737085,0 120.6,26.862915 120.6,60 C120.6,93.137085 93.737085,120 60.6,120 C48.6532977,120 37.522095,116.508431 28.1711781,110.490079 L13.81174,118.746751 L13.8061849,118.743556 C12.4918765,119.540921 10.9495501,120 9.3,120 C4.49512268,120 0.6,116.104877 0.6,111.3 C0.6,111.250141 0.600419407,111.200381 0.601254886,111.150722 L0.6,111.15 L0.6,111 L0.6,60 L0.6,60 Z M60.6,82.8 C73.1920923,82.8 83.4,72.5920923 83.4,60 C83.4,47.4079077 73.1920923,37.2 60.6,37.2 C48.0079077,37.2 37.8,47.4079077 37.8,60 C37.8,72.5920923 48.0079077,82.8 60.6,82.8 L60.6,82.8 Z" id="logo"></path>
            </g>
            <path d="M177.714984,69.0016287 L169.653094,69.0016287 L169.653094,83 L158,83 L158,38 L177.714984,38 C182.698722,38 186.668552,39.3558496 189.624593,42.0675896 C192.580634,44.7793295 194.058632,48.6025812 194.058632,53.5374593 C194.058632,58.4234772 192.580634,62.2222991 189.624593,64.9340391 C186.668552,67.645779 182.698722,69.0016287 177.714984,69.0016287 L177.714984,69.0016287 Z M182.625407,53.5374593 C182.625407,49.7752255 180.57331,47.8941368 176.469055,47.8941368 L169.653094,47.8941368 L169.653094,59.1807818 L176.469055,59.1807818 C178.521183,59.1807818 180.060255,58.6799724 181.086319,57.6783388 C182.112383,56.6767051 182.625407,55.2964257 182.625407,53.5374593 L182.625407,53.5374593 Z M219.626338,38 L231.645882,38 L248.795719,83 L236.849465,83 L233.624709,74.2785016 L217.281061,74.2785016 L214.129595,83 L202.476501,83 L219.626338,38 Z M225.48953,51.9250814 L220.872266,64.6042345 L230.106794,64.6042345 L225.48953,51.9250814 Z M302.873197,38 L302.873197,83 L293.34551,83 L274.510005,56.6889251 L274.510005,83 L263.15007,83 L263.15007,38 L274.143556,38 L291.513262,62.771987 L291.513262,38 L302.873197,38 Z M334.377386,38 L346.39693,38 L363.546767,83 L351.600513,83 L348.375757,74.2785016 L332.032109,74.2785016 L328.880643,83 L317.227548,83 L334.377386,38 Z M340.240578,51.9250814 L335.623314,64.6042345 L344.857842,64.6042345 L340.240578,51.9250814 Z" id="PANA"></path>
        </g>
    </g>
</svg>